<svg xmlns="http://www.w3.org/2000/svg" xmlns:xlink="http://www.w3.org/1999/xlink" width="95.831" height="85.298" viewBox="0 0 95.831 85.298">
  <defs>
    <style>
      .cls-1 {
        fill: #fff;
        stroke-linejoin: round;
        fill-rule: evenodd;
      }

      .cls-1, .cls-2 {
        stroke: #000;
        stroke-width: 2px;
      }

      .cls-2 {
        fill: #f7d126;
      }

      .cls-3 {
        filter: url(#Icon_awesome-horse-head);
      }
    </style>
    <filter id="Icon_awesome-horse-head" x="8.366" y="0" width="85.348" height="85.298" filterUnits="userSpaceOnUse">
      <feOffset dx="4" dy="4" input="SourceAlpha"/>
      <feGaussianBlur result="blur"/>
      <feFlood flood-opacity="0.271"/>
      <feComposite operator="in" in2="blur"/>
      <feComposite in="SourceGraphic"/>
    </filter>
  </defs>
  <g id="Groupe_24" data-name="Groupe 24" transform="translate(-1225.74 -666.469)">
    <path id="Tracé_50" data-name="Tracé 50" class="cls-1" d="M70.186,99.813l16.48,5.11c3.052-2.755,5.87-5.741,8.922-7.808,3.991,1.148,14.322,3.674,15.965,4.363L107.561,88.39l6.1-10.563-6.1-10.1,2.817-14.7-15.5,4.133L82.439,49.122l-15.5,10.334L52.387,50.041,41.353,59.685l-16.2-2.756,6.809,13.319-7.983,12.4,7.983,8.037-4.93,15.845,15.026-6.2,9.157,9.415Z" transform="matrix(0.998, -0.07, 0.07, 0.998, 1199.46, 641.638)"/>
    <g class="cls-3" transform="matrix(1, 0, 0, 1, 1225.74, 666.47)">
      <path id="Icon_awesome-horse-head-2" data-name="Icon awesome-horse-head" class="cls-2" d="M67.876,44.266,58.569,22.39A16.446,16.446,0,0,0,46.187,11.846,9.308,9.308,0,0,0,50.74.888a1.237,1.237,0,0,0-1.6-.812L22.221,10.155C4.78,16.426,0,31.8,0,53.093L35.709,68.165A4.254,4.254,0,0,0,39.516,62L34.084,51.122v-.093A17.015,17.015,0,0,1,20.2,41.763a1.054,1.054,0,0,1,.213-1.238l1.611-1.611a1.064,1.064,0,0,1,1.718.32,12.711,12.711,0,0,0,11.637,7.642,12.25,12.25,0,0,0,6.231-1.757l6.125,8.508A4.247,4.247,0,0,0,51.193,55.4h6.7A4.253,4.253,0,0,0,60.9,54.145l6.031-5.3a4.321,4.321,0,0,0,.945-4.58ZM43.67,29.82a3.2,3.2,0,1,1,3.2-3.2A3.188,3.188,0,0,1,43.67,29.82Z" transform="translate(9.53 13.01) rotate(-10)"/>
    </g>
  </g>
</svg>
