<svg xmlns="http://www.w3.org/2000/svg" xmlns:xlink="http://www.w3.org/1999/xlink" width="96.168" height="106.093" viewBox="0 0 96.168 106.093">
  <defs>
    <style>
      .cls-1 {
        fill: #ce0b59;
      }

      .cls-2 {
        fill: #25bae5;
      }

      .cls-3 {
        fill: #f7d126;
        stroke: #000;
        stroke-width: 2px;
      }

      .cls-4, .cls-5 {
        stroke: none;
      }

      .cls-5 {
        fill: #111103;
      }

      .cls-6 {
        filter: url(#Icon_awesome-robot);
      }
    </style>
    <filter id="Icon_awesome-robot" x="1.424" y="0" width="94.744" height="81.833" filterUnits="userSpaceOnUse">
      <feOffset dx="3" dy="3" input="SourceAlpha"/>
      <feGaussianBlur result="blur"/>
      <feFlood flood-opacity="0.161"/>
      <feComposite operator="in" in2="blur"/>
      <feComposite in="SourceGraphic"/>
    </filter>
  </defs>
  <g id="Groupe_20" data-name="Groupe 20" transform="translate(-6495.532 176.64)">
    <path id="Tracé_29" data-name="Tracé 29" class="cls-1" d="M1.21,1.974l80.666,8.77L72.251,46.167,2.831,44.95Z" transform="translate(6504.357 -130.23) rotate(10)"/>
    <g id="Tracé_28" data-name="Tracé 28" class="cls-2" transform="translate(6502.357 -134.23) rotate(10)">
      <path class="cls-4" d="M 71.10980987548828 44.64671325683594 L 4.276302814483643 43.47498321533203 L 2.774455308914185 3.65245509147644 L 79.96829986572266 12.04455661773682 L 71.10980987548828 44.64671325683594 Z"/>
      <path class="cls-5" d="M 4.338829040527344 5.331356048583984 L 5.721748352050781 42.00008392333984 L 69.96848297119141 43.12646102905273 L 78.06028747558594 13.34597015380859 L 4.338829040527344 5.331356048583984 M 1.210060119628906 1.973533630371094 L 81.87628936767578 10.74314880371094 L 72.25111389160156 46.16693496704102 L 2.830863952636719 44.94985580444336 L 1.210060119628906 1.973533630371094 Z"/>
    </g>
    <g class="cls-6" transform="matrix(1, 0, 0, 1, 6495.53, -176.64)">
      <path id="Icon_awesome-robot-2" data-name="Icon awesome-robot" class="cls-3" d="M0,31.832V47.748a3.975,3.975,0,0,0,3.979,3.979H7.958V27.853H3.979A3.975,3.975,0,0,0,0,31.832Zm57.7-19.9H43.769V3.979a3.979,3.979,0,1,0-7.958,0v7.958H21.885a9.945,9.945,0,0,0-9.948,9.948V55.706A7.965,7.965,0,0,0,19.9,63.664h39.79a7.965,7.965,0,0,0,7.958-7.958V21.885A9.945,9.945,0,0,0,57.7,11.937ZM31.832,51.727H23.874V47.748h7.958ZM27.853,36.806a4.974,4.974,0,1,1,4.974-4.974A4.972,4.972,0,0,1,27.853,36.806ZM43.769,51.727H35.811V47.748h7.958Zm11.937,0H47.748V47.748h7.958ZM51.727,36.806A4.974,4.974,0,1,1,56.7,31.832,4.972,4.972,0,0,1,51.727,36.806ZM75.6,27.853H71.622V51.727H75.6a3.975,3.975,0,0,0,3.979-3.979V31.832A3.975,3.975,0,0,0,75.6,27.853Z" transform="translate(2.58 14.98) rotate(-10)"/>
    </g>
  </g>
</svg>
