<svg xmlns="http://www.w3.org/2000/svg" xmlns:xlink="http://www.w3.org/1999/xlink" width="107.073" height="98.539" viewBox="0 0 107.073 98.539">
  <defs>
    <style>
      .cls-1 {
        fill: #ce0b59;
      }

      .cls-2 {
        fill: #25bae5;
      }

      .cls-3 {
        fill: #f7d126;
        stroke: #000;
        stroke-width: 2px;
      }

      .cls-4, .cls-5 {
        stroke: none;
      }

      .cls-5 {
        fill: #111103;
      }

      .cls-6 {
        filter: url(#Icon_awesome-car-side);
      }
    </style>
    <filter id="Icon_awesome-car-side" x="7.715" y="0" width="99.357" height="78.673" filterUnits="userSpaceOnUse">
      <feOffset dx="3" dy="3" input="SourceAlpha"/>
      <feGaussianBlur result="blur"/>
      <feFlood flood-opacity="0.161"/>
      <feComposite operator="in" in2="blur"/>
      <feComposite in="SourceGraphic"/>
    </filter>
  </defs>
  <g id="Groupe_19" data-name="Groupe 19" transform="translate(-6633.532 169.086)">
    <path id="Tracé_31" data-name="Tracé 31" class="cls-1" d="M1.21,1.974l80.666,8.77L72.251,46.167,2.831,44.95Z" transform="translate(6642.357 -130.23) rotate(10)"/>
    <g id="Tracé_30" data-name="Tracé 30" class="cls-2" transform="translate(6640.357 -134.23) rotate(10)">
      <path class="cls-4" d="M 71.10980987548828 44.64671325683594 L 4.276302814483643 43.47498321533203 L 2.774455308914185 3.65245509147644 L 79.96829986572266 12.04455661773682 L 71.10980987548828 44.64671325683594 Z"/>
      <path class="cls-5" d="M 4.338829040527344 5.331356048583984 L 5.721748352050781 42.00008392333984 L 69.96848297119141 43.12646102905273 L 78.06028747558594 13.34597015380859 L 4.338829040527344 5.331356048583984 M 1.210060119628906 1.973533630371094 L 81.87628936767578 10.74314880371094 L 72.25111389160156 46.16693496704102 L 2.830863952636719 44.94985580444336 L 1.210060119628906 1.973533630371094 Z"/>
    </g>
    <g class="cls-6" transform="matrix(1, 0, 0, 1, 6633.53, -169.09)">
      <path id="Icon_awesome-car-side-2" data-name="Icon awesome-car-side" class="cls-3" d="M72.25,23.5H70.125L55.678,5.44A8.5,8.5,0,0,0,49.04,2.25H20.63a8.5,8.5,0,0,0-7.892,5.343L6.375,23.8A8.48,8.48,0,0,0,0,32V46.875A2.124,2.124,0,0,0,2.125,49H8.5A12.75,12.75,0,0,0,34,49H51a12.75,12.75,0,0,0,25.5,0h6.375A2.124,2.124,0,0,0,85,46.875V36.25A12.75,12.75,0,0,0,72.25,23.5Zm-51,31.875A6.375,6.375,0,1,1,27.625,49,6.382,6.382,0,0,1,21.25,55.375ZM30.813,23.5H15.53l5.1-12.75H30.813Zm6.375,0V10.75H49.04L59.24,23.5ZM63.75,55.375A6.375,6.375,0,1,1,70.125,49,6.382,6.382,0,0,1,63.75,55.375Z" transform="translate(8.48 13.7) rotate(-10)"/>
    </g>
  </g>
</svg>
