<svg xmlns="http://www.w3.org/2000/svg" xmlns:xlink="http://www.w3.org/1999/xlink" width="95.454" height="98.046" viewBox="0 0 95.454 98.046">
  <defs>
    <style>
      .cls-1 {
        fill: #ce0b59;
      }

      .cls-2 {
        fill: #25bae5;
      }

      .cls-3 {
        fill: #f7d126;
        stroke: #000;
        stroke-width: 2px;
      }

      .cls-4, .cls-5 {
        stroke: none;
      }

      .cls-5 {
        fill: #111103;
      }

      .cls-6 {
        filter: url(#Tracé_37);
      }

      .cls-7 {
        filter: url(#Tracé_36);
      }
    </style>
    <filter id="Tracé_36" x="29.969" y="7.837" width="50.465" height="46.498" filterUnits="userSpaceOnUse">
      <feOffset dx="3" dy="3" input="SourceAlpha"/>
      <feGaussianBlur result="blur"/>
      <feFlood flood-opacity="0.161"/>
      <feComposite operator="in" in2="blur"/>
      <feComposite in="SourceGraphic"/>
    </filter>
    <filter id="Tracé_37" x="8.282" y="0" width="87.172" height="71.112" filterUnits="userSpaceOnUse">
      <feOffset dx="3" dy="3" input="SourceAlpha"/>
      <feGaussianBlur result="blur-2"/>
      <feFlood flood-opacity="0.161"/>
      <feComposite operator="in" in2="blur-2"/>
      <feComposite in="SourceGraphic"/>
    </filter>
  </defs>
  <g id="Groupe_17" data-name="Groupe 17" transform="translate(-6959.532 120.594)">
    <path id="Tracé_33" data-name="Tracé 33" class="cls-1" d="M1.21,1.974l80.666,8.77L72.251,46.167,2.831,44.95Z" transform="translate(6968.357 -82.23) rotate(10)"/>
    <g id="Tracé_32" data-name="Tracé 32" class="cls-2" transform="translate(6966.357 -86.23) rotate(10)">
      <path class="cls-4" d="M 71.10980987548828 44.64671325683594 L 4.276302814483643 43.47498321533203 L 2.774455308914185 3.65245509147644 L 79.96829986572266 12.04455661773682 L 71.10980987548828 44.64671325683594 Z"/>
      <path class="cls-5" d="M 4.338829040527344 5.331356048583984 L 5.721748352050781 42.00008392333984 L 69.96848297119141 43.12646102905273 L 78.06028747558594 13.34597015380859 L 4.338829040527344 5.331356048583984 M 1.210060119628906 1.973533630371094 L 81.87628936767578 10.74314880371094 L 72.25111389160156 46.16693496704102 L 2.830863952636719 44.94985580444336 L 1.210060119628906 1.973533630371094 Z"/>
    </g>
    <g id="Icon_ionic-md-planet" data-name="Icon ionic-md-planet" transform="translate(6968.938 -119.474)">
      <g class="cls-7" transform="matrix(1, 0, 0, 1, -9.41, -1.12)">
        <path id="Tracé_36-2" data-name="Tracé 36" class="cls-3" d="M10.163,15.429c-.391.47-.767.939-1.127,1.441a146.776,146.776,0,0,0,19.448,17.8A151.823,151.823,0,0,0,45.926,46.432c.924.517,1.832,1.018,2.709,1.472.391-.47.767-.939,1.127-1.441a23.447,23.447,0,0,0,3.648-8.393c.125-.5.235-1,.329-1.488a25.165,25.165,0,0,0-35.2-27.59A23.37,23.37,0,0,0,10.163,15.429Z" transform="translate(22.21 2.17)"/>
      </g>
      <g class="cls-6" transform="matrix(1, 0, 0, 1, -9.41, -1.12)">
        <path id="Tracé_37-2" data-name="Tracé 37" class="cls-3" d="M73.054,51.32A34.159,34.159,0,0,1,71.7,54.529a45.826,45.826,0,0,1,5.849,8.507c.44.752,1.357,2.4.165,2.273a8.746,8.746,0,0,1-1.008-.238c-3.905-.99-9.387-3.429-15.456-6.857A182.032,182.032,0,0,1,40.473,44.225,171.309,171.309,0,0,1,16.528,22.132,62.93,62.93,0,0,1,9.983,13.35a13.85,13.85,0,0,1-1.027-1.907c-.458-1.137.917-.935,1.283-.843A38.417,38.417,0,0,1,20.91,14.963a15.409,15.409,0,0,1,2.548-2.09A59.909,59.909,0,0,0,11.5,6.364C7.269,4.751,3.969,5.117,2.8,7.043.559,10.691,5.363,20.3,14.768,31.244a29.464,29.464,0,0,0,42.774,33,104.566,104.566,0,0,0,17.766,6.4c4.382,1.118,7.407,1.008,8.581-.9C85.924,66.41,81.671,60.249,73.054,51.32Z" transform="translate(7.15 -4.23)"/>
      </g>
    </g>
  </g>
</svg>
