<svg xmlns="http://www.w3.org/2000/svg" xmlns:xlink="http://www.w3.org/1999/xlink" width="49.24" height="40.24" viewBox="0 0 49.24 40.24">
  <defs>
    <style>
      .cls-1 {
        fill: #F7D126;
        stroke: #545454;
      }

      .cls-2 {
        filter: url(#Icon_awesome-dice);
      }
    </style>
    <filter id="Icon_awesome-dice" x="0" y="0" width="49.24" height="40.24" filterUnits="userSpaceOnUse">
      <feOffset dx="3" dy="3" input="SourceAlpha"/>
      <feGaussianBlur result="blur"/>
      <feFlood flood-opacity="0.349"/>
      <feComposite operator="in" in2="blur"/>
      <feComposite in="SourceGraphic"/>
    </filter>
  </defs>
  <g class="cls-2" transform="matrix(1, 0, 0, 1, 0, 0)">
    <path id="Icon_awesome-dice-2" data-name="Icon awesome-dice" class="cls-1" d="M41.625,13.5H33.276a5.7,5.7,0,0,1-1.2,6.28L22.5,29.361v3.264A3.375,3.375,0,0,0,25.875,36h15.75A3.375,3.375,0,0,0,45,32.625V16.875A3.375,3.375,0,0,0,41.625,13.5ZM33.75,26.438a1.688,1.688,0,1,1,1.688-1.687A1.688,1.688,0,0,1,33.75,26.438ZM30.49,13.31,18.19,1.01a3.45,3.45,0,0,0-4.879,0L1.01,13.31a3.45,3.45,0,0,0,0,4.879l12.3,12.3a3.45,3.45,0,0,0,4.879,0l12.3-12.3a3.451,3.451,0,0,0,0-4.88ZM6.75,17.438A1.688,1.688,0,1,1,8.438,15.75,1.688,1.688,0,0,1,6.75,17.438Zm9,9a1.688,1.688,0,1,1,1.688-1.687A1.688,1.688,0,0,1,15.75,26.438Zm0-9a1.688,1.688,0,1,1,1.688-1.687A1.688,1.688,0,0,1,15.75,17.438Zm0-9A1.688,1.688,0,1,1,17.438,6.75,1.688,1.688,0,0,1,15.75,8.438Zm9,9a1.688,1.688,0,1,1,1.688-1.687A1.688,1.688,0,0,1,24.75,17.438Z" transform="translate(0.74 0.74)"/>
  </g>
</svg>
