<svg xmlns="http://www.w3.org/2000/svg" xmlns:xlink="http://www.w3.org/1999/xlink" width="425.597" height="141.56" viewBox="0 0 425.597 141.56">
  <defs>
    <style>
      .cls-1, .cls-3 {
        fill: #ce0b59;
      }

      .cls-1, .cls-2 {
        fill-rule: evenodd;
      }

      .cls-2 {
        fill: #25bae5;
      }

      .cls-3, .cls-4, .cls-5 {
        stroke: #545454;
      }

      .cls-4, .cls-5 {
        fill: #f7d126;
      }

      .cls-5 {
        font-size: 68px;
        font-family: SIMPLCITYPERSONALUSE-Regular, SIMPLCITY PERSONAL USE;
      }

      .cls-6, .cls-7 {
        stroke: none;
      }

      .cls-7 {
        fill: #111103;
      }

      .cls-8 {
        filter: url(#lancer_le_dé);
      }

      .cls-9 {
        filter: url(#Icon_awesome-dice);
      }
    </style>
    <filter id="Icon_awesome-dice" x="5.721" y="4.156" width="136.293" height="116.551" filterUnits="userSpaceOnUse">
      <feOffset dx="3" dy="3" input="SourceAlpha"/>
      <feGaussianBlur result="blur"/>
      <feFlood flood-opacity="0.349"/>
      <feComposite operator="in" in2="blur"/>
      <feComposite in="SourceGraphic"/>
    </filter>
    <filter id="lancer_le_dé" x="144.632" y="48.854" width="245" height="58" filterUnits="userSpaceOnUse">
      <feOffset dx="3" dy="3" input="SourceAlpha"/>
      <feGaussianBlur result="blur-2"/>
      <feFlood flood-opacity="0.8"/>
      <feComposite operator="in" in2="blur-2"/>
      <feComposite in="SourceGraphic"/>
    </filter>
  </defs>
  <g id="de" transform="translate(-78.368 -880.146)">
    <path id="Tracé_53" data-name="Tracé 53" class="cls-1" d="M261.829,73.8,317.5,90.335l1.981-22.462L350.39,44.8l-31.645-4.913,17.311-24.746-48.79,5.122L268.118,2.493,244.506,12.826,221.946,1.883,201.1,22.013,174.556-1.431,146.669,12.916,104.787,3.056,94.364,19.579,70.109,5.079,57.291,21.605,25.165,9.711,39.11,32.564-.34,46.323,38.948,54.71,14.516,72.078,81.97,60.645,93.165,78.611,127.48,66.782l25.674,14.963,29.021-15.864,28.291,23.741L261.829,73.8Z" transform="matrix(0.998, -0.07, 0.07, 0.998, 148.126, 931.568)"/>
    <g id="Tracé_52" data-name="Tracé 52" class="cls-2" transform="matrix(0.998, -0.07, 0.07, 0.998, 148.126, 927.568)">
      <path class="cls-6" d="M 316.1647033691406 88.37399291992188 L 262.2557678222656 72.36573028564453 L 261.8208312988281 72.23659515380859 L 261.38720703125 72.37014007568359 L 210.8040924072266 87.94947814941406 L 183.1383514404297 64.73304748535156 L 182.3535766601563 64.07450103759766 L 181.4546661376953 64.56591033935547 L 153.1768646240234 80.02339172363281 L 128.2348480224609 65.48650360107422 L 127.640754699707 65.14027404785156 L 126.9907073974609 65.36431884765625 L 93.80569458007813 76.80315399169922 L 83.2427978515625 59.85204696655273 L 82.71084594726563 58.99832153320313 L 81.7191162109375 59.16641235351563 L 20.72561264038086 69.50411224365234 L 39.8166618347168 55.93236541748047 L 42.5978889465332 53.95523071289063 L 39.26070785522461 53.24286651611328 L 5.213583946228027 45.97517013549805 L 39.60411834716797 33.98068618774414 L 41.35829925537109 33.36891174316406 L 40.39061737060547 31.78304862976074 L 28.6959342956543 12.61749935150146 L 56.76979827880859 23.01191139221191 L 57.80157089233398 23.39391136169434 L 58.47589111328125 22.52454948425293 L 70.47974395751953 7.048371315002441 L 93.59434509277344 20.86650276184082 L 94.85134124755859 21.61791229248047 L 95.63270568847656 20.37932205200195 L 105.4852142333984 4.761092662811279 L 146.3248901367188 14.37650299072266 L 146.8631591796875 14.50323009490967 L 147.3548889160156 14.25023078918457 L 174.5109558105469 0.2792269885540009 L 200.7528839111328 15.56354904174805 L 201.5229797363281 16.01204872131348 L 202.28515625 15.55023002624512 L 222.0257568359375 3.58891749382019 L 243.8513031005859 14.17545795440674 L 244.4736175537109 14.47732162475586 L 245.1072998046875 14.20004844665527 L 267.8182983398438 4.261427879333496 L 286.2464294433594 21.36368560791016 L 286.745849609375 21.82718467712402 L 287.4234313964844 21.75604820251465 L 332.9421081542969 16.97732543945313 L 317.5160827636719 39.02809524536133 L 316.135986328125 41.00082015991211 L 318.5150756835938 41.37014007568359 L 346.630859375 45.73489761352539 L 318.5813293457031 66.67045593261719 L 318.0433349609375 67.07200622558594 L 317.984375 67.74077606201172 L 316.1647033691406 88.37399291992188 Z"/>
      <path class="cls-7" d="M 314.8317565917969 86.41346740722656 L 316.4901733398438 67.60900115966797 L 316.6081237792969 66.27149963378906 L 317.6841735839844 65.46836853027344 L 342.8712768554688 46.66925048828125 L 318.2849426269531 42.85241317749023 L 313.5267944335938 42.11373138427734 L 316.2869873046875 38.16823196411133 L 329.82763671875 18.8125057220459 L 287.5800170898438 23.24782180786133 L 286.224853515625 23.39009475708008 L 285.22607421875 22.46318435668945 L 267.5187377929688 6.029866695404053 L 245.7086639404297 15.5742301940918 L 244.4413452148438 16.12882041931152 L 243.1966552734375 15.5250940322876 L 222.105224609375 5.29463005065918 L 203.0624847412109 16.83309364318848 L 201.5381164550781 17.75677680969238 L 199.9979858398438 16.8597297668457 L 174.4663238525391 1.989098906517029 L 148.0411224365234 15.58409404754639 L 147.0576629638672 16.09004783630371 L 145.9811096191406 15.83654880523682 L 106.182975769043 6.466360092163086 L 96.90134429931641 21.17963981628418 L 95.33866119384766 23.65682220458984 L 92.82470703125 22.15395736694336 L 70.85060119628906 9.01762580871582 L 59.66111755371094 23.44386672973633 L 58.31252670288086 25.18264007568359 L 56.24898147583008 24.41859436035156 L 32.22689056396484 15.52435970306396 L 41.67107009887695 31.00172996520996 L 43.60638809204102 34.17341232299805 L 40.09811782836914 35.39700317382813 L 10.76717090606689 45.6268424987793 L 39.57384490966797 51.77591323852539 L 46.24820709228516 53.20063781738281 L 40.68579864501953 57.15495681762695 L 26.93508338928223 66.93028259277344 L 81.46843719482422 57.68750381469727 L 83.45193481445313 57.35132217407227 L 84.51589202880859 59.05873107910156 L 94.44676971435547 74.99559020996094 L 126.5018920898438 63.94623184204102 L 127.8020248413086 63.498046875 L 128.9901580810547 64.1905517578125 L 153.2005004882813 78.30098724365234 L 180.7351684570313 63.24972915649414 L 182.5330657958984 62.2669563293457 L 184.1025695800781 63.58404922485352 L 211.1428680419922 86.27561187744141 L 260.9457092285156 70.93659210205078 L 261.8128967285156 70.66950225830078 L 262.6827392578125 70.92781829833984 L 314.8317565917969 86.41346740722656 M 317.4976196289063 90.33454895019531 L 261.8287658691406 73.80368804931641 L 261.8287963867188 73.80368804931641 L 261.8287658691406 73.80368804931641 L 210.4653015136719 89.62336730957031 L 182.1741180419922 65.88209533691406 L 153.1532135009766 81.74577331542969 L 127.4795227050781 66.78245544433594 L 93.16471099853516 78.61073303222656 L 81.96974945068359 60.64532089233398 L 14.51629829406738 72.07791137695313 L 38.94757080078125 54.70981979370117 L -0.3399742841720581 46.32350158691406 L 39.11016082763672 32.56436538696289 L 25.16497993469238 9.710639953613281 L 57.29061508178711 21.6052303314209 L 70.10888671875 5.079048633575439 L 94.36402893066406 19.57900238037109 L 104.7874374389648 3.055775880813599 L 146.6686553955078 12.91641235351563 L 174.5556640625 -1.430633187294006 L 201.5078430175781 14.26736640930176 L 221.9462585449219 1.883230447769165 L 244.5059356689453 12.82586669921875 L 268.1178588867188 2.493003129959106 L 287.2667846679688 20.26423072814941 L 336.0565795898438 15.14209365844727 L 318.7451477050781 39.88791275024414 L 350.3904418945313 44.80059432983398 L 319.4785766601563 67.87255096435547 L 317.4976196289063 90.33454895019531 Z"/>
    </g>
    <g id="Groupe_26" data-name="Groupe 26" transform="translate(-130.305 38.429) rotate(-9)">
      <g class="cls-9" transform="matrix(0.99, 0.16, -0.16, 0.99, 74.43, 864)">
        <path id="Icon_awesome-dice-2" data-name="Icon awesome-dice" class="cls-3" d="M109.844,35.625H87.812A15.043,15.043,0,0,1,84.658,52.2L59.375,77.481v8.613A8.906,8.906,0,0,0,68.281,95h41.563a8.906,8.906,0,0,0,8.906-8.906V44.531A8.906,8.906,0,0,0,109.844,35.625ZM89.063,69.766a4.453,4.453,0,1,1,4.453-4.453A4.454,4.454,0,0,1,89.063,69.766Zm-8.6-34.642L48,2.666a9.1,9.1,0,0,0-12.875,0L2.666,35.124A9.1,9.1,0,0,0,2.666,48l32.458,32.46a9.1,9.1,0,0,0,12.875,0L80.459,48A9.107,9.107,0,0,0,80.459,35.124ZM17.813,46.016a4.453,4.453,0,1,1,4.453-4.453A4.454,4.454,0,0,1,17.813,46.016Zm23.75,23.75a4.453,4.453,0,1,1,4.453-4.453A4.454,4.454,0,0,1,41.563,69.766Zm0-23.75a4.453,4.453,0,1,1,4.453-4.453A4.454,4.454,0,0,1,41.563,46.016Zm0-23.75a4.453,4.453,0,1,1,4.453-4.453A4.454,4.454,0,0,1,41.563,22.266Zm23.75,23.75a4.453,4.453,0,1,1,4.453-4.453A4.454,4.454,0,0,1,65.313,46.016Z" transform="translate(6.29 23.31) rotate(-9)"/>
      </g>
      <path id="Icon_awesome-dice-3" data-name="Icon awesome-dice" class="cls-4" d="M109.844,35.625H87.812A15.043,15.043,0,0,1,84.658,52.2L59.375,77.481v8.613A8.906,8.906,0,0,0,68.281,95h41.563a8.906,8.906,0,0,0,8.906-8.906V44.531A8.906,8.906,0,0,0,109.844,35.625ZM89.063,69.766a4.453,4.453,0,1,1,4.453-4.453A4.454,4.454,0,0,1,89.063,69.766Zm-8.6-34.642L48,2.666a9.1,9.1,0,0,0-12.875,0L2.666,35.124A9.1,9.1,0,0,0,2.666,48l32.458,32.46a9.1,9.1,0,0,0,12.875,0L80.459,48A9.107,9.107,0,0,0,80.459,35.124ZM17.813,46.016a4.453,4.453,0,1,1,4.453-4.453A4.454,4.454,0,0,1,17.813,46.016Zm23.75,23.75a4.453,4.453,0,1,1,4.453-4.453A4.454,4.454,0,0,1,41.563,69.766Zm0-23.75a4.453,4.453,0,1,1,4.453-4.453A4.454,4.454,0,0,1,41.563,46.016Zm0-23.75a4.453,4.453,0,1,1,4.453-4.453A4.454,4.454,0,0,1,41.563,22.266Zm23.75,23.75a4.453,4.453,0,1,1,4.453-4.453A4.454,4.454,0,0,1,65.313,46.016Z" transform="translate(72 883)"/>
    </g>
    <g class="cls-8" transform="matrix(1, 0, 0, 1, 78.37, 880.15)">
      <text id="lancer_le_dé-2" data-name="lancer le dé" class="cls-5" transform="translate(145.63 90.85)"><tspan x="0" y="0">lancer le dé</tspan></text>
    </g>
  </g>
</svg>
