<svg xmlns="http://www.w3.org/2000/svg" xmlns:xlink="http://www.w3.org/1999/xlink" width="115.919" height="79.394" viewBox="0 0 115.919 79.394">
  <defs>
    <style>
      .cls-1 {
        fill: #fff;
        stroke-linejoin: round;
        fill-rule: evenodd;
      }

      .cls-1, .cls-2 {
        stroke: #000;
        stroke-width: 2px;
      }

      .cls-2 {
        fill: #f7d126;
      }

      .cls-3 {
        filter: url(#Icon_awesome-car-side);
      }
    </style>
    <filter id="Icon_awesome-car-side" x="12.432" y="0" width="99.358" height="78.673" filterUnits="userSpaceOnUse">
      <feOffset dx="3" dy="3" input="SourceAlpha"/>
      <feGaussianBlur result="blur"/>
      <feFlood flood-opacity="0.161"/>
      <feComposite operator="in" in2="blur"/>
      <feComposite in="SourceGraphic"/>
    </filter>
  </defs>
  <g id="Groupe_22" data-name="Groupe 22" transform="translate(-1001.815 -172.914)">
    <path id="Tracé_47" data-name="Tracé 47" class="cls-1" d="M80.534,100.424,100.7,105.6c3.736-2.789,7.184-5.81,10.92-7.9,4.885,1.162,17.529,3.718,19.541,4.415l-4.885-13.247,7.471-10.691-7.471-10.226,3.448-14.874-18.966,4.183-15.23-8.134L76.566,59.58,58.75,50.052,45.244,59.813,25.416,57.024,33.749,70.5l-9.77,12.55,9.77,8.134-6.035,16.036,18.391-6.275,11.207,9.528Z" transform="matrix(0.998, -0.07, 0.07, 0.998, 975.535, 142.706)"/>
    <g class="cls-3" transform="matrix(1, 0, 0, 1, 1001.82, 172.91)">
      <path id="Icon_awesome-car-side-2" data-name="Icon awesome-car-side" class="cls-2" d="M72.25,23.5H70.125L55.678,5.44A8.5,8.5,0,0,0,49.04,2.25H20.63a8.5,8.5,0,0,0-7.892,5.343L6.375,23.8A8.48,8.48,0,0,0,0,32V46.875A2.124,2.124,0,0,0,2.125,49H8.5A12.75,12.75,0,0,0,34,49H51a12.75,12.75,0,0,0,25.5,0h6.375A2.124,2.124,0,0,0,85,46.875V36.25A12.75,12.75,0,0,0,72.25,23.5Zm-51,31.875A6.375,6.375,0,1,1,27.625,49,6.382,6.382,0,0,1,21.25,55.375ZM30.813,23.5H15.53l5.1-12.75H30.813Zm6.375,0V10.75H49.04L59.24,23.5ZM63.75,55.375A6.375,6.375,0,1,1,70.125,49,6.382,6.382,0,0,1,63.75,55.375Z" transform="translate(13.2 13.7) rotate(-10)"/>
    </g>
  </g>
</svg>
